<svg id="Layer_1" data-name="Layer 1" xmlns="http://www.w3.org/2000/svg" xmlns:xlink="http://www.w3.org/1999/xlink" viewBox="0 0 162.4 55.6"><defs><style>.cls-1{fill:url(#linear-gradient);}.cls-2{fill:url(#linear-gradient-2);}.cls-3{fill:url(#linear-gradient-3);}.cls-4{fill:url(#linear-gradient-4);}.cls-5{fill:url(#linear-gradient-5);}</style><linearGradient id="linear-gradient" x1="58.04" y1="45.14" x2="226.71" y2="-21.72" gradientUnits="userSpaceOnUse"><stop offset="0" stop-color="#1d4350"/><stop offset="1" stop-color="#a43931"/></linearGradient><linearGradient id="linear-gradient-2" x1="61.18" y1="53.91" x2="230.27" y2="-13.12" xlink:href="#linear-gradient"/><linearGradient id="linear-gradient-3" x1="64.36" y1="61.61" x2="233.27" y2="-5.34" xlink:href="#linear-gradient"/><linearGradient id="linear-gradient-4" x1="69.94" y1="75.81" x2="239.03" y2="8.78" xlink:href="#linear-gradient"/><linearGradient id="linear-gradient-5" x1="74.08" y1="85.59" x2="242.74" y2="18.74" xlink:href="#linear-gradient"/></defs><title>civis</title><path class="cls-1" d="M109.4,55c-2.56,1.28-7.68,2.56-14.24,2.56C80,57.6,68.52,48,68.52,30.32,68.52,13.44,80,2,96.68,2c6.72,0,11,1.44,12.8,2.4l-1.68,5.68A25.36,25.36,0,0,0,96.92,7.84c-12.64,0-21,8.08-21,22.24,0,13.2,7.6,21.68,20.72,21.68A27.85,27.85,0,0,0,108,49.52Z" transform="translate(-68.52 -2)"/><path class="cls-2" d="M125,3V57h-7V3Z" transform="translate(-68.52 -2)"/><path class="cls-3" d="M149.07,57,131.45,3h7.46l8.45,26.72c2.33,7.32,4.35,13.92,5.8,20.28h.16c1.53-6.28,3.78-13.12,6.2-20.2L168.69,3h7.38L156.76,57Z" transform="translate(-68.52 -2)"/><path class="cls-4" d="M189,3V57h-7V3Z" transform="translate(-68.52 -2)"/><path class="cls-5" d="M200,48.32a24.66,24.66,0,0,0,12.48,3.52c7.12,0,11.28-3.76,11.28-9.2,0-5-2.88-7.92-10.16-10.72-8.8-3.12-14.24-7.68-14.24-15.28,0-8.4,7-14.64,17.44-14.64a24.5,24.5,0,0,1,11.92,2.64l-1.92,5.68A21.48,21.48,0,0,0,216.6,7.76c-7.36,0-10.16,4.4-10.16,8.08,0,5,3.28,7.52,10.72,10.4,9.12,3.52,13.76,7.92,13.76,15.84,0,8.32-6.16,15.52-18.88,15.52-5.2,0-10.88-1.52-13.76-3.44Z" transform="translate(-68.52 -2)"/></svg>